<?xml version="1.0" standalone="no"?>
<!DOCTYPE svg PUBLIC "-//W3C//DTD SVG 20010904//EN"
 "http://www.w3.org/TR/2001/REC-SVG-20010904/DTD/svg10.dtd">
<svg version="1.0" xmlns="http://www.w3.org/2000/svg"
 width="715.000000pt" height="893.000000pt" viewBox="0 0 715.000000 893.000000"
 preserveAspectRatio="xMidYMid meet">
<metadata>
Created by potrace 1.15, written by Peter Selinger 2001-2017
</metadata>
<g transform="translate(0.000000,893.000000) scale(0.100000,-0.100000)"
fill="#000000" stroke="none">
<path d="M3920 8638 c-52 -22 -66 -27 -94 -33 -16 -3 -43 -17 -61 -31 -17 -13
-37 -24 -44 -24 -6 0 -14 -7 -17 -15 -10 -25 -44 -19 -41 7 3 29 -30 36 -48
11 -9 -12 -14 -13 -15 -5 0 9 -7 11 -22 6 -13 -4 -42 -7 -65 -6 -31 1 -43 -2
-43 -13 0 -20 -20 -29 -33 -15 -9 9 -8 15 7 25 19 14 14 35 -8 35 -18 0 -85
-52 -86 -67 0 -6 -14 -26 -32 -43 -31 -31 -32 -32 -40 -11 -9 25 -16 26 -37 6
-9 -8 -34 -15 -56 -16 -30 -2 -47 -9 -67 -32 -16 -16 -28 -34 -28 -38 0 -5
-14 -9 -30 -9 -54 0 -119 -47 -90 -65 16 -10 11 -44 -8 -63 -10 -10 -18 -31
-18 -48 1 -19 -4 -29 -14 -29 -11 0 -14 10 -13 38 3 46 -12 48 -27 3 -6 -19
-17 -37 -25 -40 -8 -3 -15 -11 -15 -18 0 -7 -16 -31 -35 -53 -19 -22 -35 -46
-35 -53 0 -7 -12 -25 -27 -40 -15 -15 -28 -40 -30 -57 -2 -16 -8 -31 -13 -33
-6 -2 -10 -9 -10 -16 0 -7 -9 -22 -20 -34 -14 -15 -20 -34 -19 -60 1 -24 -9
-57 -30 -97 -17 -33 -31 -67 -31 -76 0 -9 -9 -19 -20 -22 -15 -4 -20 -13 -19
-39 0 -18 3 -27 6 -20 11 27 25 11 19 -20 -4 -18 -10 -50 -13 -70 -5 -37 -23
-54 -23 -23 0 8 -5 15 -11 15 -8 0 -10 -14 -6 -42 3 -24 9 -63 12 -88 5 -33 4
-41 -4 -30 -9 12 -11 10 -11 -12 0 -16 5 -28 11 -28 8 0 9 -15 5 -45 -6 -37
-4 -45 8 -45 11 0 16 -10 16 -31 0 -27 -2 -30 -15 -19 -12 10 -15 10 -15 -1 0
-20 38 -212 46 -232 12 -33 26 -5 19 39 -6 39 -4 44 14 44 12 0 21 -8 24 -22
3 -18 5 -16 6 7 0 17 8 40 16 52 13 18 13 22 -1 34 -8 7 -12 19 -8 28 3 9 8
29 11 45 8 49 22 76 39 76 13 0 15 -7 9 -37 -4 -21 -11 -43 -16 -50 -7 -8 -5
-14 7 -21 14 -8 15 -14 6 -41 -10 -27 -8 -32 11 -46 20 -14 23 -14 32 7 7 15
6 23 -3 26 -18 6 -14 28 8 43 17 12 19 21 13 72 -5 51 -8 57 -27 55 -13 -2
-22 3 -24 14 -4 22 57 61 128 82 68 20 77 20 58 -1 -17 -20 -30 -50 -33 -75
-1 -14 6 -18 28 -18 l30 0 -19 -22 c-31 -35 -54 -75 -47 -82 4 -3 18 -6 32 -7
25 0 25 -1 5 -9 -29 -11 -40 -30 -18 -30 13 0 14 -3 4 -15 -7 -8 -17 -12 -22
-8 -6 3 -8 0 -6 -8 3 -8 15 -13 27 -12 13 2 21 -3 21 -12 0 -8 4 -15 9 -15 5
0 9 15 8 33 -1 43 28 96 54 97 4 0 10 -15 13 -34 13 -68 86 -83 128 -25 25 34
44 37 53 9 3 -11 11 -20 16 -20 12 0 11 41 -1 60 -5 9 -5 19 2 27 11 14 -5 43
-25 43 -6 0 -21 12 -33 27 -19 24 -24 26 -38 14 -16 -14 -17 -13 -41 57 -2 7
-16 17 -30 22 -33 13 -32 26 4 38 22 8 48 5 117 -14 49 -13 90 -24 92 -24 1 0
2 11 2 25 0 18 7 26 25 31 46 11 27 26 -24 19 -42 -6 -51 -4 -62 13 -13 17
-25 19 -114 18 -93 -2 -175 -19 -175 -37 0 -4 -8 -8 -17 -8 -10 1 -28 -2 -40
-6 -20 -6 -23 -4 -23 19 0 73 80 243 175 371 30 41 55 79 55 85 0 5 4 10 8 10
5 0 31 22 58 48 104 102 176 131 334 138 l105 5 66 -63 c37 -35 86 -82 110
-105 24 -23 67 -69 94 -103 28 -33 63 -75 78 -93 32 -35 117 -152 117 -159 0
-3 -46 -3 -102 -1 -256 12 -286 7 -308 -53 -7 -16 -20 -25 -47 -29 -21 -4 -47
-10 -58 -15 -11 -5 -27 -11 -35 -13 -10 -4 -8 -6 6 -6 27 -1 48 -26 40 -46 -3
-8 -1 -15 4 -15 6 0 10 5 10 10 0 6 13 10 29 10 17 0 33 5 36 10 5 8 11 8 19
0 7 -5 25 -9 40 -8 34 3 31 30 -4 38 l-25 6 23 8 c12 4 22 11 22 16 0 26 106
45 175 31 l40 -8 -42 -8 c-48 -8 -68 -35 -27 -35 14 0 35 -5 46 -11 29 -15 58
12 38 36 -7 8 -10 18 -7 21 9 9 95 -5 102 -17 4 -5 18 -9 33 -9 31 0 87 -60
98 -104 3 -14 10 -29 15 -31 4 -3 5 -13 2 -21 -3 -8 -1 -25 5 -37 6 -12 13
-38 14 -57 2 -28 8 -36 26 -38 12 -2 27 -13 34 -25 6 -12 31 -44 54 -70 51
-57 137 -229 153 -307 7 -30 16 -74 22 -98 9 -43 11 -127 2 -104 -2 6 -9 12
-14 12 -4 0 -6 -6 -3 -14 3 -8 1 -17 -5 -21 -6 -3 -11 -19 -11 -35 0 -20 -6
-31 -20 -35 -11 -3 -20 -15 -20 -25 0 -29 -11 -49 -23 -44 -15 5 -52 -91 -48
-123 1 -13 -2 -23 -8 -23 -5 0 -13 24 -16 54 -6 48 -10 54 -29 53 -11 0 -24
-6 -28 -12 -5 -7 -14 -6 -28 3 -19 11 -21 10 -26 -18 -4 -16 -13 -30 -20 -30
-8 0 -14 -7 -14 -15 0 -7 -7 -18 -15 -22 -10 -6 -16 -27 -18 -66 -1 -37 -6
-57 -14 -57 -7 0 -13 6 -13 13 0 6 -5 4 -11 -5 -14 -25 -23 -22 -40 10 -8 15
-20 33 -26 40 -7 7 -13 28 -13 46 0 21 -11 48 -30 75 -56 76 -89 101 -137 101
-33 0 -112 23 -141 41 -16 10 -24 10 -35 1 -20 -17 -47 -4 -47 22 0 12 -6 28
-12 35 -10 10 -10 15 -1 18 23 8 63 44 63 56 0 7 -37 24 -82 39 -73 23 -86 25
-113 14 -16 -7 -39 -23 -49 -35 -11 -12 -31 -21 -49 -21 -20 0 -28 -4 -24 -13
8 -21 -9 -41 -28 -34 -9 4 -13 12 -10 18 10 15 -25 49 -51 49 -17 0 -24 -7
-29 -30 -7 -34 1 -70 17 -70 6 0 7 -11 3 -27 -8 -36 -71 -95 -132 -124 -87
-42 -183 -156 -183 -217 0 -27 -27 -49 -42 -34 -17 17 -28 15 -28 -4 0 -33
-25 -5 -35 39 -17 79 -27 66 -20 -28 5 -68 15 -111 42 -179 19 -48 32 -97 30
-108 -3 -11 0 -21 8 -24 7 -3 19 -20 28 -37 74 -158 91 -185 124 -201 18 -9
39 -27 45 -41 6 -14 15 -25 20 -25 26 0 98 -43 121 -73 14 -18 45 -54 69 -78
23 -25 54 -61 68 -81 18 -27 36 -40 70 -49 25 -7 51 -21 58 -31 9 -13 26 -18
57 -18 34 0 48 -5 63 -25 11 -13 31 -29 46 -35 36 -13 161 -4 199 15 16 8 38
15 47 15 9 0 25 9 35 20 10 11 27 20 38 20 25 0 77 31 77 46 0 6 9 14 20 17
11 3 24 16 29 29 5 14 24 31 41 38 34 14 80 54 80 70 0 5 8 15 18 22 33 23
113 128 124 161 5 18 14 41 19 52 5 11 13 32 18 47 7 19 15 26 26 22 10 -4 15
0 15 13 0 11 11 42 26 69 14 27 34 76 44 109 23 69 36 92 46 82 10 -9 23 -91
24 -152 1 -27 5 -59 9 -69 7 -18 12 -16 58 27 27 26 55 47 62 47 6 0 11 5 11
11 0 6 12 23 28 38 85 84 139 162 211 305 43 84 81 161 84 172 3 10 15 42 25
69 109 287 145 537 123 836 -13 174 -43 364 -66 414 -7 17 -16 48 -20 69 -5
28 -9 36 -15 26 -5 -8 -5 -19 -1 -25 5 -5 11 -33 15 -61 3 -29 13 -65 20 -80
18 -38 30 -144 16 -144 -5 0 -10 16 -10 36 0 19 -5 44 -11 55 -5 11 -15 48
-20 82 -6 34 -13 64 -17 67 -12 9 -42 59 -42 70 0 6 -7 18 -15 26 -8 9 -18 33
-21 55 -4 21 -9 39 -13 39 -4 0 -15 16 -25 35 -11 19 -23 35 -28 35 -4 0 -8 8
-8 18 0 10 -8 25 -17 33 -10 9 -38 42 -63 73 -60 77 -181 197 -192 190 -5 -3
-7 0 -6 7 2 7 -7 18 -19 24 -13 5 -23 13 -23 16 0 4 -20 19 -45 33 -30 18 -45
34 -45 47 0 16 -4 19 -17 14 -10 -4 -28 -10 -40 -12 -18 -4 -21 -2 -16 16 3
12 12 21 21 21 8 0 12 3 9 7 -4 3 -18 0 -31 -7 -22 -11 -28 -10 -57 14 -17 15
-38 25 -45 22 -7 -3 -16 -1 -20 5 -3 6 3 13 15 16 12 3 21 13 21 23 0 13 -11
19 -47 25 -27 4 -54 12 -62 18 -18 15 -80 38 -111 41 -60 7 -88 19 -109 46
-12 17 -28 30 -35 30 -7 0 -19 6 -25 14 -10 12 -8 15 11 19 19 3 19 4 3 5 -11
0 -31 -4 -45 -10z m-280 -2448 c11 -6 19 -14 17 -18 -1 -4 6 -18 16 -32 15
-22 20 -23 38 -12 17 11 23 11 36 0 8 -7 25 -17 36 -23 25 -12 37 -59 38 -154
0 -55 -3 -67 -25 -90 -14 -15 -26 -32 -26 -37 0 -6 -9 -19 -20 -29 -18 -17
-21 -17 -38 -2 -15 14 -24 15 -55 5 -34 -11 -39 -10 -53 10 l-15 23 -31 -26
c-35 -30 -49 -31 -71 -7 -30 33 -2 122 39 122 21 0 59 42 84 93 29 58 20 75
-32 58 -29 -10 -147 -29 -280 -46 -46 -6 -74 -25 -50 -33 7 -2 19 -17 27 -33
14 -26 14 -29 -4 -39 -11 -5 -27 -10 -35 -10 -9 0 -16 -5 -16 -10 0 -12 41
-30 53 -23 11 7 47 -7 47 -18 0 -5 -8 -13 -17 -16 -10 -4 -24 -15 -31 -25 -10
-14 -27 -18 -77 -18 -68 0 -72 2 -92 60 -20 56 -16 116 13 176 23 49 29 55 49
50 18 -5 25 -1 30 14 4 11 16 27 28 34 22 14 160 53 207 58 71 9 193 7 210 -2z"/>
<path d="M3944 7274 c3 -9 6 -18 6 -20 0 -2 9 -4 20 -4 11 0 20 -7 20 -15 0
-19 -36 -20 -43 -1 -3 7 -23 16 -44 19 -21 3 -45 7 -53 9 -8 3 -12 3 -7 1 11
-7 8 -36 -7 -55 -19 -26 -26 -22 -26 12 0 31 -26 53 -39 33 -3 -6 -28 -23 -55
-38 -38 -21 -50 -24 -57 -14 -9 15 -8 15 -32 -23 -9 -14 -27 -29 -39 -31 -20
-4 -20 -4 4 -6 16 0 32 -9 38 -21 23 -42 53 -23 89 58 13 27 51 30 51 4 0 -28
42 -62 77 -62 32 0 73 37 73 66 0 24 20 15 38 -16 18 -32 27 -36 37 -20 3 6
18 7 33 4 27 -7 27 -7 8 15 -21 23 -21 23 9 39 17 10 18 11 3 12 -11 0 -18 8
-18 21 0 12 -8 23 -20 26 -11 3 -20 9 -20 14 0 5 -12 9 -26 9 -20 0 -25 -4
-20 -16z"/>
<path d="M6680 7219 c-19 -22 -31 -29 -48 -24 -17 4 -25 0 -34 -20 -6 -14 -16
-25 -22 -25 -6 0 -28 -11 -48 -25 -20 -14 -44 -25 -52 -25 -9 0 -16 -7 -16
-15 0 -11 -12 -15 -48 -15 -26 0 -53 -5 -58 -10 -14 -14 -46 -1 -40 16 7 18 0
18 -35 -3 -25 -15 -33 -16 -50 -4 -18 11 -24 10 -38 -4 -15 -15 -11 -16 51
-11 38 3 70 1 73 -4 7 -11 -25 -59 -38 -60 -5 0 -6 4 -2 9 8 15 -15 25 -28 12
-14 -14 -37 -14 -37 -1 0 6 8 10 17 10 13 0 14 3 6 11 -18 18 -46 3 -38 -21 7
-22 -10 -28 -19 -7 -3 6 -5 3 -3 -8 1 -13 12 -22 32 -26 17 -4 25 -7 19 -8
-18 -2 -25 -41 -8 -41 8 0 23 9 34 20 25 25 100 29 100 5 0 -11 11 -15 36 -15
40 0 73 -15 92 -42 7 -10 21 -18 30 -17 11 0 12 2 4 6 -6 2 -10 9 -6 14 7 12
71 12 79 -1 3 -5 19 -10 34 -10 16 0 34 -6 40 -13 9 -11 0 -14 -46 -16 -31 -1
-64 -6 -73 -11 -9 -5 -27 -6 -39 -3 -12 3 -32 1 -44 -5 -31 -15 -107 -22 -107
-10 0 6 -18 8 -47 4 -75 -9 -232 -4 -252 9 -6 3 -22 2 -38 -1 -25 -7 -25 -8
-8 -15 20 -7 20 -8 0 -8 -11 -1 -27 -5 -35 -11 -10 -6 -5 -9 20 -8 19 0 100
-2 178 -4 79 -1 146 0 149 5 2 4 10 4 16 0 7 -4 31 -7 54 -8 32 0 43 4 43 15
0 10 3 11 8 4 4 -7 16 -13 27 -15 12 -3 21 -14 23 -27 2 -12 8 -22 13 -22 6 0
9 10 7 23 -2 18 2 23 25 25 22 3 30 -1 34 -18 l6 -21 14 21 c13 18 59 26 51 9
-2 -3 4 -14 12 -23 12 -16 12 -19 -2 -27 -10 -5 -24 -16 -33 -25 -13 -13 -16
-13 -20 -1 -4 9 -20 13 -51 12 -57 -3 -61 -18 -6 -26 23 -3 48 -11 54 -17 7
-7 28 -12 48 -12 26 0 31 -3 20 -10 -8 -5 -25 -7 -36 -4 -12 3 -25 1 -28 -5
-4 -6 -24 -11 -44 -11 -30 0 -34 -2 -22 -13 12 -9 85 -11 313 -9 l297 3 0 97
0 97 -64 -3 c-56 -3 -65 -6 -70 -25 -3 -12 -1 -26 4 -31 17 -17 11 -36 -16
-47 -21 -7 -31 -6 -46 7 -16 15 -22 40 -8 33 3 -1 15 3 28 10 24 13 31 47 7
38 -8 -4 -17 -2 -19 2 -3 5 -19 11 -36 14 -29 6 -30 8 -24 49 9 67 8 66 71 64
52 -1 58 -3 61 -23 2 -14 8 -20 18 -16 8 3 20 1 27 -5 6 -6 24 -8 40 -5 l27 5
0 151 0 150 -25 -47 c-14 -26 -25 -58 -25 -70 0 -13 -7 -29 -15 -36 -8 -7 -15
-23 -15 -35 0 -50 -7 -55 -87 -55 -75 0 -75 0 -69 24 3 14 1 28 -4 31 -6 4 -8
11 -4 16 10 17 -8 70 -34 101 -115 127 -110 123 -130 105 -17 -16 -21 -16 -32
-2 -10 12 -10 15 4 15 9 0 16 7 16 15 0 22 -12 18 -40 -16z"/>
<path d="M5980 7057 c0 -9 5 -19 11 -22 6 -4 8 -13 5 -20 -3 -8 4 -25 15 -39
12 -15 15 -27 9 -31 -19 -12 0 -26 21 -15 12 7 19 7 19 1 0 -14 -34 -23 -56
-15 -10 4 -16 4 -12 -1 4 -4 -2 -16 -14 -26 -19 -17 -19 -19 -3 -19 10 0 33 5
51 12 26 9 38 9 58 -1 26 -15 46 -8 46 15 0 9 -10 14 -27 14 -21 0 -24 3 -14
9 9 6 22 6 31 1 21 -11 62 -1 57 14 -2 6 -16 10 -30 8 -16 -2 -27 1 -27 8 0 7
8 9 19 5 11 -3 22 -1 25 4 4 6 -9 13 -29 17 -19 3 -35 10 -35 15 0 5 14 6 30
2 25 -5 29 -3 24 11 -3 9 -12 16 -20 16 -8 0 -22 4 -32 9 -16 8 -69 27 -104
38 -12 3 -18 0 -18 -10z"/>
<path d="M674 2632 c-17 -15 -48 -40 -68 -55 -20 -15 -36 -35 -36 -44 0 -8
-16 -38 -36 -65 -26 -38 -32 -53 -24 -63 9 -10 18 -9 49 8 38 21 38 21 122 2
46 -10 108 -27 138 -37 30 -10 75 -18 100 -18 25 -1 64 -8 86 -16 22 -8 68
-19 102 -23 36 -5 75 -18 92 -30 16 -12 56 -30 89 -40 69 -22 197 -85 208
-102 4 -7 8 -26 10 -42 1 -16 6 -32 12 -36 18 -12 43 -73 40 -99 -3 -25 -6
-23 -83 49 -86 80 -136 119 -154 119 -7 0 7 -17 30 -37 84 -76 139 -135 134
-143 -3 -5 -19 -7 -35 -3 -19 3 -30 1 -30 -6 0 -6 8 -12 18 -12 9 -1 24 -2 32
-3 8 -1 29 -8 45 -17 17 -9 85 -26 152 -39 l121 -23 47 41 c26 23 53 42 60 42
7 0 42 14 79 30 l66 30 -2 167 c-3 148 -5 166 -20 169 -18 2 -22 -7 -33 -71
-9 -59 -41 -158 -65 -205 -18 -34 -25 -40 -43 -35 -38 12 -128 69 -156 100
-22 24 -133 121 -176 153 -5 4 -35 28 -66 54 -30 26 -97 73 -148 103 -52 31
-100 62 -108 70 -13 13 -121 68 -216 110 -46 20 -174 18 -196 -3 -10 -9 -25
-12 -45 -7 -17 4 -38 8 -46 9 -8 1 -15 6 -15 11 0 6 25 9 55 8 50 -3 53 -2 36
12 -32 24 -87 18 -122 -13z"/>
<path d="M4809 2464 c-33 -25 -37 -25 -178 -22 l-144 3 -9 -32 c-6 -22 -16
-35 -32 -39 -21 -5 -26 -15 -35 -70 -16 -90 -50 -195 -70 -219 -31 -36 -98
-208 -106 -271 -6 -57 -5 -62 14 -67 12 -3 24 -13 27 -24 4 -10 15 -36 25 -58
17 -40 62 -194 72 -250 3 -16 29 -78 57 -137 42 -90 58 -113 98 -144 26 -19
61 -42 78 -49 57 -23 203 -146 349 -291 80 -79 147 -144 149 -144 10 0 113
-74 134 -95 26 -29 30 -45 4 -22 -10 10 -21 15 -24 12 -3 -3 -11 1 -18 10 -7
8 -22 15 -34 15 -16 -1 -14 -4 12 -15 35 -15 43 -34 15 -36 -132 -12 -213 2
-227 37 -3 9 -13 14 -20 11 -8 -3 -26 5 -40 18 -38 35 -41 13 -3 -26 39 -41
55 -70 67 -122 9 -41 5 -67 -12 -67 -5 0 -6 15 -3 33 6 28 1 38 -31 72 -20 22
-50 55 -67 73 -25 27 -47 41 -47 29 0 -2 14 -30 30 -62 17 -32 30 -63 30 -68
0 -5 9 -20 19 -34 11 -13 17 -31 14 -39 -8 -21 -20 -9 -43 44 -11 25 -24 49
-29 52 -4 3 -20 29 -36 57 -15 29 -32 53 -37 53 -5 0 -8 10 -7 23 4 25 -25 73
-52 88 -15 8 -17 6 -12 -8 3 -10 10 -24 16 -30 5 -7 7 -23 3 -35 -4 -16 1 -29
17 -43 25 -22 51 -74 42 -83 -24 -24 -105 1 -105 32 0 8 -11 21 -25 30 -14 9
-23 21 -19 27 3 6 -1 18 -9 27 -8 9 -31 53 -53 97 -51 107 -104 198 -112 191
-3 -4 0 -12 6 -18 7 -7 12 -21 12 -31 0 -11 9 -36 19 -56 22 -40 34 -71 36
-86 1 -5 18 -46 38 -89 20 -43 37 -83 37 -87 0 -5 9 -13 20 -19 17 -9 20 -17
14 -46 -5 -25 -2 -40 9 -52 21 -23 18 -62 -5 -62 -10 0 -18 4 -18 10 0 5 -12
20 -26 34 -19 17 -25 31 -21 45 7 27 3 26 -37 -4 -18 -14 -41 -25 -50 -25 -12
0 -16 -5 -12 -18 4 -12 -3 -23 -23 -35 -27 -16 -29 -16 -45 2 -9 9 -16 22 -16
28 0 6 -7 24 -15 40 -21 41 -65 166 -65 185 0 9 -7 18 -15 22 -8 3 -15 18 -15
33 0 15 -5 35 -11 43 -8 11 -9 3 -6 -31 l4 -47 -55 -11 c-46 -9 -58 -9 -72 4
-13 11 -24 12 -53 4 -20 -5 -37 -14 -37 -19 0 -5 -15 -6 -34 -3 -19 3 -48 1
-65 -5 -20 -7 -33 -7 -37 -1 -3 6 -11 8 -17 6 -7 -2 -17 3 -23 11 -6 9 -19 17
-28 18 -25 4 -103 42 -111 54 -3 5 -26 10 -51 10 -35 0 -50 5 -68 25 -13 14
-26 25 -30 25 -4 0 -19 -14 -33 -31 -21 -25 -33 -30 -62 -28 -45 3 -121 -11
-121 -22 0 -4 -14 -3 -31 3 -17 6 -54 8 -82 5 -29 -4 -68 -3 -89 2 -26 6 -40
5 -50 -5 -7 -7 -34 -24 -60 -37 -37 -19 -48 -21 -52 -10 -8 20 -32 16 -48 -9
-14 -20 -17 -21 -79 -10 -35 6 -82 14 -104 16 -70 7 -153 24 -174 35 -16 9
-21 7 -26 -8 -3 -10 -3 -25 0 -33 6 -16 -30 -68 -48 -68 -7 0 -25 14 -40 30
-16 17 -33 28 -37 25 -5 -3 -21 -3 -35 1 -18 4 -28 15 -32 35 -8 40 -31 36
-39 -6 -7 -39 -7 -39 -36 -24 -25 13 -38 -1 -38 -43 0 -22 -5 -28 -23 -28 -20
0 -23 -4 -19 -35 4 -34 5 -35 49 -35 36 0 46 4 50 20 3 11 14 20 24 20 16 0
18 -7 14 -67 -3 -46 -1 -69 8 -75 7 -4 -4 -6 -23 -4 -19 3 -42 5 -50 6 -12 0
-12 3 3 14 19 14 14 41 -8 50 -8 3 -28 -2 -45 -11 -37 -18 -99 -12 -116 12 -7
9 -21 17 -33 18 -23 1 -29 27 -7 27 21 0 30 19 17 34 -12 15 -1 59 18 71 6 3
11 17 11 31 0 14 7 27 15 30 8 4 15 17 15 30 0 17 5 23 17 22 41 -3 59 3 68
25 6 13 26 27 48 34 21 7 45 20 53 28 21 21 27 19 53 -16 l23 -31 25 41 c13
23 29 41 36 41 6 0 24 12 39 27 21 20 39 27 71 28 23 0 48 6 55 13 8 7 18 9
24 6 6 -4 8 -2 5 3 -9 14 16 23 65 23 30 0 39 3 35 14 -9 22 13 37 36 24 16
-8 22 -7 29 6 14 26 63 46 111 46 30 0 53 7 77 25 22 16 47 25 71 25 24 0 39
5 43 15 3 8 10 15 17 15 6 0 9 -7 5 -15 -3 -10 1 -15 13 -15 10 0 21 7 25 15
3 9 0 15 -9 15 -8 0 -15 5 -15 10 0 6 4 10 10 10 5 0 24 13 42 28 18 16 41 31
51 35 9 4 17 12 18 19 0 17 103 98 123 98 17 0 48 39 40 52 -7 11 -51 10 -58
-1 -3 -4 -29 -11 -57 -15 -29 -4 -66 -14 -83 -23 -28 -15 -97 -24 -170 -24
-16 0 -45 -9 -63 -21 -33 -19 -43 -20 -193 -13 -109 5 -160 4 -164 -4 -10 -16
-106 -12 -106 5 0 16 -41 19 -57 3 -19 -19 -228 -14 -277 6 -13 6 -17 5 -13
-2 4 -6 -2 -13 -13 -16 -28 -7 -35 10 -15 33 9 10 14 24 10 29 -8 13 -38 14
-51 2 -9 -9 -36 -14 -63 -12 -12 1 -12 4 -3 13 16 16 15 29 -1 27 -33 -4 -47
2 -47 23 0 12 -3 19 -6 15 -7 -7 16 -118 28 -132 10 -12 11 -75 0 -75 -14 0
-82 75 -82 90 0 8 -6 26 -13 40 -7 14 -19 44 -26 68 -8 23 -18 42 -22 42 -10
0 -6 -66 4 -76 13 -14 7 -22 -13 -17 -22 6 -28 -12 -17 -59 1 -6 -13 -15 -31
-18 -30 -7 -33 -5 -49 29 -9 20 -18 37 -19 39 -7 10 -53 -33 -58 -54 -9 -33
-42 -29 -38 5 2 18 -2 22 -20 19 -13 -2 -22 -9 -20 -16 1 -8 -8 -22 -20 -33
-20 -17 -33 -19 -86 -14 -61 5 -64 5 -92 -25 -15 -16 -32 -30 -38 -30 -5 0
-17 -11 -26 -25 -9 -14 -23 -25 -31 -25 -8 0 -18 -12 -21 -27 -10 -41 -22 -52
-63 -58 -20 -4 -45 -10 -56 -15 -11 -5 -28 -10 -38 -12 -10 -2 -17 -7 -17 -12
1 -5 -2 -12 -7 -15 -4 -3 -15 -19 -23 -36 -11 -20 -24 -31 -42 -33 -16 -2 -40
-18 -57 -38 -36 -40 -21 -39 -270 -12 -168 18 -211 28 -211 48 0 6 -7 10 -15
10 -8 0 -15 7 -15 15 0 8 7 15 15 15 8 0 15 4 15 10 0 5 17 18 37 28 53 24 52
54 -3 67 -23 6 -48 16 -57 24 -10 7 -26 11 -37 8 -11 -3 -20 -1 -20 5 0 5 -7
16 -15 25 -12 11 -27 13 -68 8 -28 -4 -55 -13 -60 -19 -5 -7 -14 -3 -27 14
-18 24 -20 24 -36 8 -16 -16 -16 -22 -2 -83 19 -78 16 -95 -23 -117 -36 -21
-36 -30 1 -68 34 -35 50 -36 158 -14 66 14 95 14 202 4 121 -11 405 -56 422
-66 4 -3 8 -14 8 -25 0 -23 9 -24 25 -2 11 15 18 15 68 4 45 -11 62 -22 91
-57 20 -23 36 -46 36 -49 0 -4 16 -26 35 -49 19 -24 35 -47 35 -53 0 -5 -12
-20 -26 -34 l-26 -24 -31 38 c-18 20 -39 37 -46 37 -15 0 -173 55 -202 70 -25
13 -37 -2 -105 -140 -15 -30 -36 -67 -46 -82 -11 -16 -15 -28 -10 -28 6 0 12
7 16 15 3 8 15 15 27 15 18 0 19 -2 9 -15 -7 -9 -10 -18 -7 -22 10 -9 103 -42
177 -62 68 -18 78 -22 147 -52 59 -26 95 -24 151 11 50 30 82 38 82 20 0 -5
-5 -10 -11 -10 -6 0 -8 -7 -5 -16 4 -9 2 -22 -4 -29 -15 -18 -15 -73 0 -152
l13 -73 169 0 168 0 1 98 c3 147 0 137 34 138 17 0 56 10 88 21 62 22 86 20
227 -13 l66 -15 11 -73 c7 -40 19 -91 28 -114 l17 -42 1979 0 c1088 0 1979 3
1979 8 0 20 -90 243 -130 323 -45 88 -94 454 -105 789 -7 216 -17 309 -41 388
-18 56 -33 64 -70 38 -20 -14 -22 -13 -32 21 -10 32 -8 41 13 78 14 23 25 50
25 60 0 11 -19 48 -43 84 -26 39 -51 93 -61 131 -21 82 -88 169 -193 255 -114
93 -125 100 -245 149 -62 26 -122 51 -133 56 -102 48 -288 110 -327 110 -8 0
-30 -12 -49 -26z"/>
<path d="M430 2113 c-81 -33 -129 -84 -141 -150 -5 -25 -7 -49 -4 -51 3 -3 29
22 59 54 51 57 80 74 165 102 35 12 191 5 191 -8 0 -10 138 -21 275 -21 158 0
155 0 155 10 0 4 -64 11 -142 14 -108 4 -151 10 -178 23 -19 10 -70 20 -115
24 -44 4 -90 12 -102 18 -34 19 -93 13 -163 -15z"/>
<path d="M4570 1015 c0 -11 74 -137 138 -235 51 -77 72 -99 88 -93 9 3 14 -2
14 -14 0 -16 40 -63 54 -63 2 0 2 15 0 33 -1 17 -3 38 -3 46 -1 9 -9 11 -25 7
-16 -4 -29 0 -41 14 -18 20 -14 52 7 48 6 -2 14 5 16 14 2 13 -1 16 -12 12
-12 -4 -16 0 -16 15 0 13 -6 21 -16 21 -12 0 -15 -6 -11 -22 4 -18 -4 -13 -34
21 -21 24 -39 52 -39 62 0 11 -4 19 -8 19 -4 0 -15 13 -25 29 -31 53 -87 108
-87 86z"/>
</g>
</svg>
